<svg width="43" height="43" viewBox="0 0 43 43" fill="none" xmlns="http://www.w3.org/2000/svg">
<path d="M21.0585 0C16.8936 0 12.8221 1.23506 9.35904 3.549C5.89599 5.86294 3.19686 9.15184 1.60299 12.9998C0.00912428 16.8477 -0.407905 21.0819 0.404643 25.1668C1.21719 29.2518 3.22282 33.0041 6.16791 35.9492C9.113 38.8942 12.8653 40.8999 16.9502 41.7124C21.0352 42.525 25.2693 42.1079 29.1173 40.5141C32.9652 38.9202 36.2541 36.2211 38.5681 32.758C40.882 29.295 42.1171 25.2235 42.1171 21.0585C42.1107 15.4754 39.89 10.1228 35.9421 6.17493C31.9943 2.22708 26.6416 0.00636979 21.0585 0ZM4.0613 27.0752H6.01673L12.2997 30.9861C12.6314 31.1924 13.0303 31.2617 13.4121 31.1791C13.7938 31.0966 14.1286 30.8688 14.3454 30.5439L15.8616 28.2696C16.0542 27.9803 16.1406 27.6334 16.1064 27.2876C16.0721 26.9418 15.9192 26.6186 15.6736 26.3728L12.0335 22.7312L13.5376 18.0502H21.5444C21.8448 18.0501 22.1383 17.9601 22.3871 17.7917C22.6358 17.6234 22.8285 17.3844 22.9403 17.1055L25.3199 11.1565C25.3989 10.9592 25.4351 10.7474 25.4263 10.5351C25.4175 10.3227 25.3638 10.1147 25.2687 9.92458L21.8302 3.04747C24.9313 3.17148 27.9476 4.09532 30.5862 5.72926C33.2249 7.36321 35.3961 9.65173 36.8892 12.3726C38.3822 15.0934 39.1462 18.1541 39.1071 21.2575C39.068 24.3608 38.227 27.4013 36.6659 30.0836H31.5878C31.1889 30.0836 30.8063 30.2421 30.5242 30.5242C30.2421 30.8063 30.0836 31.1889 30.0836 31.5878V36.6674C27.7936 38.0005 25.2373 38.8111 22.5976 39.0413C19.9579 39.2716 17.2998 38.9157 14.8136 37.9993C12.3274 37.0828 10.0743 35.6284 8.21558 33.7399C6.35682 31.8515 4.93825 29.5757 4.0613 27.0752Z" fill="#1F1A17"/>
</svg>
